<?xml version="1.0" encoding="UTF-8"?>
<svg xmlns="http://www.w3.org/2000/svg" xmlns:xlink="http://www.w3.org/1999/xlink" width="3773" height="3773" viewBox="0 0 3773 3773">
<path fill-rule="nonzero" fill="rgb(0%, 0%, 0%)" fill-opacity="1" d="M 0 0 L 3772.699219 0 L 3772.699219 3772.699219 L 0 3772.703125 C 0 2515.128906 0 1257.570312 0 0 Z M 0 0 "/>
<path fill-rule="nonzero" fill="rgb(99.609375%, 99.609375%, 99.609375%)" fill-opacity="1" d="M 2798.210938 2073.109375 L 2798.21875 2073.121094 L 2798.21875 2073.109375 Z M 2815.28125 2013.378906 C 2815.128906 2013.378906 2814.980469 2013.378906 2814.820312 2013.378906 C 2797.148438 2013.429688 2781.269531 2016.378906 2767.460938 2022.378906 C 2762.949219 2024.339844 2759.339844 2026.550781 2756.371094 2028.890625 C 2753.949219 2030.78125 2750.390625 2033.601562 2747.839844 2040.03125 C 2745.941406 2044.808594 2746.789062 2049.429688 2750.140625 2053.789062 L 2750.128906 2053.789062 C 2713.300781 2070.578125 2676.46875 2087.371094 2639.648438 2104.160156 L 2639.660156 2104.160156 L 2639.648438 2104.160156 C 2624.570312 2111.03125 2609.488281 2117.910156 2594.410156 2124.78125 C 2566.929688 2137.320312 2539.449219 2149.839844 2511.96875 2162.371094 L 2511.980469 2162.378906 C 2527.058594 2169.25 2542.128906 2176.121094 2557.199219 2183 L 2639.660156 2145.398438 L 2639.589844 2145.371094 L 2639.660156 2145.398438 L 2684.871094 2124.789062 C 2684.359375 2124.550781 2683.839844 2124.320312 2683.328125 2124.089844 L 2683.351562 2124.089844 C 2683.859375 2124.320312 2684.371094 2124.550781 2684.878906 2124.78125 L 2798.199219 2073.109375 L 2798.210938 2073.109375 C 2796.761719 2072.980469 2795.328125 2072.828125 2793.910156 2072.660156 L 2793.929688 2072.660156 C 2797.339844 2073.070312 2800.859375 2073.371094 2804.488281 2073.550781 C 2807.019531 2073.671875 2809.53125 2073.730469 2812.011719 2073.730469 C 2826.660156 2073.730469 2840.359375 2071.570312 2853.128906 2067.289062 C 2853.128906 2067.289062 2855.671875 2066.46875 2859.949219 2064.550781 C 2872.96875 2058.289062 2879.601562 2051.179688 2879.839844 2043.191406 C 2880.089844 2035.210938 2874.238281 2028.019531 2861.261719 2022.050781 C 2848.359375 2016.121094 2832.71875 2013.378906 2815.28125 2013.378906 Z M 2815.28125 2013.378906 "/>
<path fill-rule="nonzero" fill="rgb(99.609375%, 99.609375%, 99.609375%)" fill-opacity="1" d="M 2984.871094 1761.839844 C 2984.71875 1761.839844 2984.570312 1761.839844 2984.410156 1761.839844 C 2966.738281 1761.890625 2950.859375 1764.851562 2937.050781 1770.851562 C 2932.539062 1772.808594 2928.929688 1775.019531 2925.960938 1777.359375 C 2923.539062 1779.25 2919.980469 1782.070312 2917.429688 1788.5 C 2915.710938 1792.839844 2916.25 1797.050781 2918.878906 1801.050781 L 2918.851562 1801.050781 C 2718.949219 1892.191406 2519.058594 1983.328125 2319.160156 2074.46875 C 2334.25 2081.339844 2349.320312 2088.210938 2364.398438 2095.089844 L 2964.921875 1821.289062 L 2964.929688 1821.289062 L 2964.921875 1821.289062 L 2964.941406 1821.289062 L 2964.929688 1821.289062 L 2964.949219 1821.289062 C 2967.910156 1821.621094 2970.960938 1821.859375 2974.078125 1822.019531 C 2976.609375 1822.140625 2979.121094 1822.199219 2981.601562 1822.199219 C 2996.25 1822.199219 3009.949219 1820.039062 3022.71875 1815.761719 C 3022.71875 1815.761719 3025.261719 1814.929688 3029.539062 1813.019531 C 3042.558594 1806.761719 3049.191406 1799.640625 3049.429688 1791.660156 C 3049.679688 1783.679688 3043.828125 1776.480469 3030.851562 1770.519531 C 3017.949219 1764.589844 3002.308594 1761.839844 2984.871094 1761.839844 Z M 2984.871094 1761.839844 "/>
<path fill-rule="nonzero" fill="rgb(99.609375%, 99.609375%, 99.609375%)" fill-opacity="1" d="M 3049.679688 2034.960938 L 3049.671875 2034.960938 C 3049.660156 2034.960938 3049.660156 2034.960938 3049.640625 2034.960938 Z M 3061.878906 1974.859375 C 3061.71875 1974.859375 3061.570312 1974.859375 3061.421875 1974.859375 C 3043.75 1974.910156 3027.859375 1977.871094 3014.058594 1983.871094 C 3009.550781 1985.820312 3005.941406 1988.03125 3002.960938 1990.371094 C 3000.550781 1992.269531 2996.988281 1995.089844 2994.429688 2001.519531 C 2992.269531 2006.980469 2993.679688 2012.238281 2998.339844 2017.128906 L 2998.320312 2017.128906 C 2906.730469 2058.890625 2815.128906 2100.648438 2723.539062 2142.410156 C 2710.660156 2136.53125 2654.230469 2110.800781 2639.660156 2104.160156 L 2639.648438 2104.160156 C 2630.261719 2099.871094 2620.878906 2095.589844 2611.480469 2091.308594 L 2611.46875 2091.308594 C 2596.390625 2084.429688 2581.320312 2077.558594 2566.25 2070.691406 L 2566.230469 2070.691406 C 2551.148438 2077.558594 2536.070312 2084.441406 2520.980469 2091.320312 C 2493.5 2103.839844 2466.03125 2116.371094 2438.550781 2128.898438 C 2453.628906 2135.78125 2468.710938 2142.648438 2483.789062 2149.519531 L 2566.238281 2111.929688 L 2594.429688 2124.78125 C 2594.421875 2124.78125 2594.421875 2124.78125 2594.410156 2124.78125 L 2594.429688 2124.78125 L 2639.660156 2145.398438 L 2678.320312 2163.03125 L 2723.550781 2183.648438 L 2768.769531 2163.03125 L 3049.679688 2034.960938 L 3049.699219 2034.960938 L 3049.679688 2034.960938 L 3049.699219 2034.960938 C 3050.160156 2034.980469 3050.628906 2035.011719 3051.089844 2035.03125 C 3053.621094 2035.160156 3056.128906 2035.21875 3058.609375 2035.21875 C 3073.25 2035.21875 3086.929688 2032.960938 3099.71875 2028.769531 C 3102.28125 2027.941406 3106.550781 2026.03125 3106.550781 2026.03125 C 3119.609375 2019.859375 3126.199219 2012.660156 3126.441406 2004.679688 C 3126.691406 1996.699219 3120.839844 1989.5 3107.859375 1983.53125 C 3094.960938 1977.609375 3079.308594 1974.859375 3061.878906 1974.859375 Z M 3061.878906 1974.859375 "/>
<path fill-rule="nonzero" fill="rgb(99.609375%, 99.609375%, 99.609375%)" fill-opacity="1" d="M 2638.671875 1711.820312 C 2638.519531 1711.820312 2638.359375 1711.820312 2638.210938 1711.820312 C 2620.539062 1711.871094 2604.648438 1714.820312 2590.851562 1720.820312 C 2586.339844 1722.78125 2582.730469 1724.988281 2579.75 1727.320312 C 2577.339844 1729.21875 2573.78125 1732.039062 2571.230469 1738.46875 C 2569.050781 1743.941406 2570.480469 1749.21875 2575.160156 1754.109375 L 2575.140625 1754.109375 C 2523 1777.878906 2470.871094 1801.648438 2418.730469 1825.421875 C 2403.660156 1832.300781 2388.578125 1839.171875 2373.5 1846.050781 L 2418.578125 1866.589844 L 2487.210938 1897.878906 C 2487.199219 1897.878906 2487.191406 1897.890625 2487.179688 1897.890625 L 2487.199219 1897.898438 C 2394.628906 1940.089844 2302.078125 1982.289062 2209.53125 2024.480469 C 2224.609375 2031.359375 2239.691406 2038.230469 2254.769531 2045.109375 L 2577.660156 1897.878906 C 2562.589844 1891.011719 2547.519531 1884.128906 2532.449219 1877.261719 L 2532.429688 1877.261719 C 2509.609375 1866.859375 2486.800781 1856.449219 2463.980469 1846.050781 L 2463.960938 1846.050781 L 2626.550781 1771.921875 L 2626.570312 1771.921875 L 2626.550781 1771.921875 L 2627.878906 1771.988281 C 2630.410156 1772.109375 2632.921875 1772.171875 2635.390625 1772.171875 C 2650.039062 1772.171875 2663.75 1770.011719 2676.511719 1765.730469 C 2679.101562 1764.988281 2683.339844 1762.988281 2683.339844 1762.988281 C 2696.398438 1756.820312 2702.980469 1749.621094 2703.230469 1741.628906 C 2703.480469 1733.648438 2697.628906 1726.460938 2684.648438 1720.488281 C 2671.75 1714.558594 2656.101562 1711.820312 2638.671875 1711.820312 Z M 2638.671875 1711.820312 "/>
<path fill-rule="nonzero" fill="rgb(99.609375%, 99.609375%, 99.609375%)" fill-opacity="1" d="M 2210.929688 1629.191406 C 2210.78125 1629.191406 2210.628906 1629.191406 2210.46875 1629.191406 C 2192.800781 1629.238281 2176.921875 1632.191406 2163.109375 1638.191406 C 2158.601562 1640.148438 2154.988281 1642.359375 2152.019531 1644.699219 C 2149.601562 1646.589844 2146.039062 1649.410156 2143.488281 1655.839844 C 2141.398438 1661.101562 2142.628906 1666.171875 2146.878906 1670.890625 L 2146.859375 1670.898438 C 2124.019531 1681.308594 2101.171875 1691.730469 2078.320312 1702.148438 C 2063.238281 1709.03125 2048.160156 1715.898438 2033.089844 1722.769531 L 2078.328125 1743.390625 L 2248.96875 1821.191406 C 2227.621094 1830.921875 2206.289062 1840.640625 2184.960938 1850.371094 C 2184.960938 1850.371094 2184.960938 1850.371094 2184.96875 1850.371094 L 2184.949219 1850.371094 C 2169.878906 1857.25 2154.800781 1864.121094 2139.730469 1871 C 2095.25 1891.269531 2050.78125 1911.550781 2006.308594 1931.820312 C 2021.390625 1938.699219 2036.46875 1945.570312 2051.539062 1952.441406 L 2184.96875 1891.609375 L 2183.710938 1891.039062 L 2184.96875 1891.609375 L 2230.179688 1871 L 2294.199219 1841.808594 L 2339.421875 1821.191406 C 2324.351562 1814.320312 2309.28125 1807.441406 2294.210938 1800.570312 C 2237.328125 1774.640625 2180.449219 1748.699219 2123.570312 1722.769531 L 2123.550781 1722.769531 L 2197.210938 1689.191406 L 2197.21875 1689.191406 C 2198.179688 1689.25 2199.160156 1689.308594 2200.140625 1689.359375 C 2202.671875 1689.480469 2205.179688 1689.539062 2207.660156 1689.539062 C 2222.308594 1689.539062 2236.011719 1687.378906 2248.769531 1683.101562 C 2248.769531 1683.101562 2251.320312 1682.28125 2255.601562 1680.359375 C 2268.621094 1674.101562 2275.25 1666.988281 2275.488281 1659.011719 C 2275.738281 1651.03125 2269.890625 1643.828125 2256.910156 1637.859375 C 2244.011719 1631.929688 2228.359375 1629.191406 2210.929688 1629.191406 Z M 2210.929688 1629.191406 "/>
<path fill-rule="nonzero" fill="rgb(99.609375%, 99.609375%, 99.609375%)" fill-opacity="1" d="M 790.277344 1918.929688 C 772.847656 1918.929688 757.195312 1921.671875 744.296875 1927.601562 C 731.316406 1933.570312 725.46875 1940.761719 725.714844 1948.738281 C 725.960938 1956.730469 732.585938 1963.839844 745.609375 1970.101562 C 749.886719 1972.019531 752.433594 1972.839844 752.433594 1972.839844 C 765.195312 1977.121094 778.902344 1979.28125 793.550781 1979.28125 C 796.027344 1979.28125 798.535156 1979.21875 801.066406 1979.089844 C 803.761719 1978.960938 806.394531 1978.769531 808.96875 1978.5 L 884.355469 2012.871094 C 856.691406 2025.480469 829.027344 2038.101562 801.363281 2050.710938 C 786.285156 2057.589844 771.207031 2064.460938 756.128906 2071.339844 L 801.363281 2091.960938 L 1062.019531 2210.800781 C 1077.089844 2203.921875 1092.171875 2197.050781 1107.25 2190.179688 C 1020.359375 2150.558594 933.480469 2110.949219 846.59375 2071.339844 L 929.585938 2033.5 L 974.820312 2012.871094 C 959.742188 2006 944.664062 1999.121094 929.585938 1992.25 C 905.027344 1981.058594 880.472656 1969.859375 855.914062 1958.660156 C 858.851562 1954.5 859.519531 1950.109375 857.71875 1945.578125 C 855.164062 1939.148438 851.609375 1936.328125 849.195312 1934.429688 C 846.214844 1932.101562 842.609375 1929.890625 838.101562 1927.929688 C 824.292969 1921.929688 808.40625 1918.980469 790.734375 1918.929688 C 790.582031 1918.929688 790.429688 1918.929688 790.277344 1918.929688 Z M 790.277344 1918.929688 "/>
<path fill-rule="nonzero" fill="rgb(99.609375%, 99.609375%, 99.609375%)" fill-opacity="1" d="M 1035.769531 1950.140625 C 1018.339844 1950.140625 1002.691406 1952.890625 989.789062 1958.820312 C 976.808594 1964.78125 970.964844 1971.980469 971.207031 1979.960938 C 971.457031 1987.941406 978.082031 1995.058594 991.101562 2001.320312 C 995.382812 2003.230469 997.925781 2004.058594 997.925781 2004.058594 C 1010.691406 2008.339844 1024.390625 2010.5 1039.039062 2010.5 C 1041.519531 2010.5 1044.03125 2010.441406 1046.558594 2010.320312 C 1051.339844 2010.078125 1055.929688 2009.640625 1060.320312 2008.988281 L 1282.480469 2110.28125 C 1297.558594 2103.410156 1312.628906 2096.53125 1327.710938 2089.660156 C 1252.800781 2055.5 1177.890625 2021.351562 1102.980469 1987.191406 C 1104.519531 1983.839844 1104.628906 1980.371094 1103.210938 1976.800781 C 1100.660156 1970.371094 1097.101562 1967.550781 1094.691406 1965.660156 C 1091.710938 1963.320312 1088.101562 1961.109375 1083.589844 1959.148438 C 1069.789062 1953.148438 1053.898438 1950.191406 1036.230469 1950.140625 C 1036.070312 1950.140625 1035.929688 1950.140625 1035.769531 1950.140625 Z M 1035.769531 1950.140625 "/>
<path fill-rule="nonzero" fill="rgb(99.609375%, 99.609375%, 99.609375%)" fill-opacity="1" d="M 1103.089844 1804.800781 C 1085.660156 1804.800781 1070.011719 1807.539062 1057.109375 1813.46875 C 1044.128906 1819.441406 1038.28125 1826.640625 1038.53125 1834.621094 C 1038.769531 1842.601562 1045.398438 1849.710938 1058.421875 1855.96875 C 1062.699219 1857.890625 1065.25 1858.710938 1065.25 1858.710938 C 1078.011719 1863 1091.710938 1865.160156 1106.359375 1865.160156 C 1108.839844 1865.160156 1111.351562 1865.089844 1113.878906 1864.96875 C 1120.289062 1864.660156 1126.359375 1863.96875 1132.058594 1862.898438 L 1307.761719 1943.011719 C 1292.011719 1950.191406 1276.261719 1957.371094 1260.511719 1964.558594 C 1245.429688 1971.429688 1230.351562 1978.308594 1215.269531 1985.179688 L 1258.878906 2005.058594 L 1260.460938 2005.78125 L 1260.511719 2005.800781 L 1260.460938 2005.78125 L 1260.511719 2005.800781 L 1386.070312 2063.050781 C 1401.148438 2056.179688 1416.21875 2049.300781 1431.300781 2042.429688 C 1389.449219 2023.339844 1347.601562 2004.261719 1305.738281 1985.179688 L 1352.988281 1963.628906 L 1398.21875 1943.011719 C 1383.148438 1936.140625 1368.070312 1929.261719 1353 1922.390625 C 1292.378906 1894.75 1231.761719 1867.109375 1171.140625 1839.46875 C 1171.808594 1836.871094 1171.621094 1834.191406 1170.53125 1831.449219 C 1167.980469 1825.019531 1164.421875 1822.199219 1162 1820.308594 C 1159.03125 1817.96875 1155.421875 1815.761719 1150.910156 1813.808594 C 1137.101562 1807.808594 1121.21875 1804.851562 1103.550781 1804.800781 C 1103.390625 1804.800781 1103.238281 1804.800781 1103.089844 1804.800781 Z M 1103.089844 1804.800781 "/>
<path fill-rule="nonzero" fill="rgb(99.609375%, 99.609375%, 99.609375%)" fill-opacity="1" d="M 1557.328125 1746.039062 C 1542.25 1752.921875 1527.171875 1759.789062 1512.089844 1766.660156 C 1501 1771.71875 1489.910156 1776.78125 1478.820312 1781.839844 C 1466.398438 1787.5 1453.988281 1793.160156 1441.570312 1798.820312 C 1438.910156 1800.03125 1436.25 1801.238281 1433.589844 1802.460938 C 1421.171875 1808.121094 1408.75 1813.78125 1396.339844 1819.441406 C 1384.921875 1824.640625 1373.511719 1829.851562 1362.089844 1835.058594 C 1357.300781 1832.871094 1352.5 1830.679688 1347.710938 1828.5 L 1347.699219 1828.5 C 1349.238281 1825.148438 1349.359375 1821.679688 1347.941406 1818.109375 C 1345.378906 1811.679688 1341.820312 1808.859375 1339.410156 1806.96875 C 1336.429688 1804.628906 1332.828125 1802.421875 1328.320312 1800.460938 C 1314.511719 1794.460938 1298.628906 1791.511719 1280.949219 1791.460938 C 1280.800781 1791.460938 1280.648438 1791.460938 1280.5 1791.460938 C 1263.058594 1791.460938 1247.410156 1794.199219 1234.519531 1800.128906 C 1221.539062 1806.101562 1215.691406 1813.300781 1215.929688 1821.28125 C 1216.179688 1829.261719 1222.808594 1836.371094 1235.828125 1842.628906 C 1240.109375 1844.550781 1242.648438 1845.371094 1242.648438 1845.371094 C 1255.410156 1849.660156 1269.121094 1851.820312 1283.769531 1851.820312 C 1286.25 1851.820312 1288.75 1851.75 1291.289062 1851.628906 C 1296.070312 1851.390625 1300.671875 1850.949219 1305.058594 1850.300781 L 1305.070312 1850.300781 L 1316.859375 1855.679688 L 1362.089844 1876.300781 L 1377.171875 1869.429688 L 1384.710938 1865.988281 L 1407.320312 1855.679688 L 1441.570312 1840.058594 L 1478.820312 1823.078125 L 1486.800781 1819.441406 L 1524.050781 1802.460938 C 1524.019531 1802.441406 1523.980469 1802.429688 1523.941406 1802.410156 L 1523.949219 1802.410156 C 1523.980469 1802.429688 1524.019531 1802.441406 1524.058594 1802.460938 L 1557.320312 1787.28125 L 1774.109375 1886.121094 C 1789.191406 1879.25 1804.261719 1872.378906 1819.339844 1865.5 C 1746.839844 1832.441406 1674.320312 1799.378906 1601.808594 1766.320312 C 1586.980469 1759.558594 1572.160156 1752.800781 1557.328125 1746.039062 Z M 1557.328125 1746.039062 "/>
<path fill-rule="nonzero" fill="rgb(99.609375%, 99.609375%, 99.609375%)" fill-opacity="1" d="M 1301.339844 2878.195312 L 1301.339844 2878.199219 L 1301.339844 2878.195312 L 1301.339844 2878.199219 Z M 1799.78125 2540.03125 C 1792.878906 2543.179688 1785.96875 2546.328125 1779.058594 2549.480469 C 1700.480469 2585.308594 1621.910156 2621.128906 1543.328125 2656.960938 C 1528.25 2663.828125 1513.179688 2670.710938 1498.101562 2677.578125 L 1543.339844 2698.199219 L 1619.71875 2733.03125 C 1513.589844 2781.421875 1407.460938 2829.808594 1301.339844 2878.195312 L 1301.339844 2878.199219 C 1297.070312 2877.820312 1292.660156 2877.632812 1288.140625 2877.632812 C 1287.980469 2877.632812 1287.839844 2877.632812 1287.679688 2877.632812 C 1270.011719 2877.683594 1254.128906 2880.640625 1240.320312 2886.636719 C 1235.808594 2888.597656 1232.199219 2890.804688 1229.21875 2893.144531 C 1226.808594 2895.039062 1223.25 2897.859375 1220.691406 2904.289062 C 1217.519531 2912.277344 1222.03125 2919.835938 1233.101562 2926.421875 C 1244.601562 2933.269531 1259.730469 2936.941406 1277.351562 2937.804688 C 1279.878906 2937.925781 1282.390625 2937.988281 1284.859375 2937.988281 C 1299.511719 2937.988281 1313.21875 2935.828125 1325.980469 2931.546875 C 1328.570312 2930.808594 1332.808594 2928.804688 1332.808594 2928.804688 C 1345.871094 2922.632812 1352.449219 2915.433594 1352.699219 2907.449219 C 1352.808594 2903.972656 1351.761719 2900.644531 1349.460938 2897.5 L 1664.960938 2753.660156 L 1710.179688 2733.03125 C 1695.109375 2726.160156 1680.039062 2719.28125 1664.960938 2712.410156 C 1639.488281 2700.800781 1614.03125 2689.191406 1588.570312 2677.578125 L 1824.289062 2570.109375 L 1845.019531 2560.660156 L 1799.789062 2540.03125 Z M 1799.78125 2540.03125 "/>
<path fill-rule="nonzero" fill="rgb(99.609375%, 99.609375%, 99.609375%)" fill-opacity="1" d="M 1812.609375 2523.53125 L 1767.378906 2544.160156 L 2150.148438 2718.671875 L 2150.140625 2718.679688 C 2148.570312 2721.339844 2147.859375 2724.140625 2147.949219 2727.03125 C 2148.191406 2735.011719 2154.820312 2742.128906 2167.839844 2748.378906 C 2172.121094 2750.300781 2174.660156 2751.121094 2174.660156 2751.121094 C 2187.429688 2755.410156 2201.128906 2757.570312 2215.78125 2757.570312 C 2218.261719 2757.570312 2220.769531 2757.511719 2223.300781 2757.378906 C 2240.921875 2756.519531 2256.050781 2752.851562 2267.550781 2746 C 2278.621094 2739.410156 2283.128906 2731.859375 2279.949219 2723.871094 C 2277.390625 2717.441406 2273.839844 2714.621094 2271.429688 2712.71875 C 2268.449219 2710.390625 2264.839844 2708.179688 2260.328125 2706.21875 C 2246.519531 2700.21875 2230.640625 2697.261719 2212.96875 2697.210938 C 2212.808594 2697.210938 2212.660156 2697.210938 2212.511719 2697.210938 C 2206.660156 2697.210938 2201.011719 2697.519531 2195.601562 2698.160156 C 2067.941406 2639.949219 1940.28125 2581.738281 1812.621094 2523.53125 Z M 1812.609375 2523.53125 "/>
<path fill-rule="nonzero" fill="rgb(99.609375%, 99.609375%, 99.609375%)" fill-opacity="1" d="M 2158.421875 2365.859375 L 2113.199219 2386.480469 L 2354.839844 2496.660156 L 2354.820312 2496.660156 C 2353.46875 2499.160156 2352.859375 2501.769531 2352.941406 2504.460938 C 2353.191406 2512.449219 2359.808594 2519.558594 2372.828125 2525.820312 C 2377.109375 2527.738281 2379.660156 2528.558594 2379.660156 2528.558594 C 2392.421875 2532.839844 2406.128906 2535 2420.769531 2535 C 2423.25 2535 2425.761719 2534.941406 2428.289062 2534.820312 C 2445.910156 2533.960938 2461.039062 2530.28125 2472.539062 2523.441406 C 2483.609375 2516.851562 2488.121094 2509.300781 2484.949219 2501.300781 C 2482.390625 2494.871094 2478.828125 2492.050781 2476.421875 2490.160156 C 2473.441406 2487.820312 2469.828125 2485.609375 2465.320312 2483.648438 C 2451.519531 2477.648438 2435.628906 2474.699219 2417.960938 2474.648438 C 2417.808594 2474.648438 2417.660156 2474.648438 2417.5 2474.648438 C 2411.21875 2474.648438 2405.179688 2475 2399.398438 2475.738281 C 2319.078125 2439.109375 2238.761719 2402.488281 2158.429688 2365.859375 Z M 2158.421875 2365.859375 "/>
<path fill-rule="nonzero" fill="rgb(99.609375%, 99.609375%, 99.609375%)" fill-opacity="1" d="M 2042.730469 1785.519531 C 2027.648438 1792.398438 2012.570312 1799.269531 1997.5 1806.140625 C 1953.019531 1826.421875 1908.550781 1846.699219 1864.070312 1866.980469 C 1879.160156 1873.851562 1894.230469 1880.71875 1909.308594 1887.601562 L 2042.730469 1826.769531 L 2139.730469 1870.988281 C 2139.730469 1870.988281 2139.730469 1870.988281 2139.730469 1871 L 2184.96875 1891.609375 L 2215.480469 1905.53125 C 2214.75 1906.738281 2214.039062 1908.128906 2213.390625 1909.75 C 2210.21875 1917.75 2214.71875 1925.300781 2225.789062 1931.890625 C 2237.300781 1938.730469 2252.421875 1942.410156 2270.050781 1943.269531 C 2272.578125 1943.390625 2275.078125 1943.460938 2277.558594 1943.460938 C 2292.210938 1943.460938 2305.921875 1941.300781 2318.679688 1937.011719 C 2318.679688 1937.011719 2321.21875 1936.191406 2325.5 1934.269531 C 2338.519531 1928.019531 2345.148438 1920.898438 2345.398438 1912.921875 C 2345.640625 1904.941406 2339.800781 1897.738281 2326.820312 1891.769531 C 2313.910156 1885.839844 2298.269531 1883.101562 2280.828125 1883.101562 C 2280.679688 1883.101562 2280.53125 1883.101562 2280.378906 1883.101562 C 2273.28125 1883.121094 2266.46875 1883.609375 2259.96875 1884.570312 C 2250.050781 1880.050781 2240.128906 1875.519531 2230.199219 1871 L 2230.179688 1871 C 2215.121094 1864.121094 2200.050781 1857.25 2184.96875 1850.371094 L 2184.949219 1850.371094 C 2152.628906 1835.628906 2120.300781 1820.890625 2087.96875 1806.140625 C 2072.890625 1799.269531 2057.808594 1792.398438 2042.738281 1785.519531 Z M 2042.730469 1785.519531 "/>
<path fill-rule="nonzero" fill="rgb(99.609375%, 99.609375%, 99.609375%)" fill-opacity="1" d="M 2758.070312 2495.050781 Z M 2758.089844 2495.050781 L 2758.078125 2495.050781 Z M 2599.929688 2567.160156 Z M 2659.199219 2798.214844 L 2659.199219 2798.21875 C 2659.199219 2798.214844 2659.199219 2798.214844 2659.199219 2798.214844 Z M 2659.199219 2798.214844 L 2659.21875 2798.214844 L 2659.210938 2798.21875 Z M 2316.578125 2293.75 L 2271.359375 2314.371094 L 2667.621094 2495.050781 C 2667.609375 2495.050781 2667.609375 2495.050781 2667.609375 2495.050781 C 2629.96875 2512.210938 2592.320312 2529.371094 2554.679688 2546.53125 C 2539.609375 2553.410156 2524.53125 2560.28125 2509.449219 2567.160156 C 2494.980469 2573.761719 2480.511719 2580.359375 2466.039062 2586.949219 C 2450.960938 2593.828125 2435.890625 2600.699219 2420.808594 2607.570312 C 2390.851562 2621.230469 2360.898438 2634.890625 2330.941406 2648.550781 C 2315.859375 2655.429688 2300.78125 2662.300781 2285.699219 2669.179688 L 2330.949219 2689.789062 L 2578.21875 2802.53125 L 2578.199219 2802.53125 C 2575.078125 2806.101562 2573.648438 2809.933594 2573.78125 2813.964844 C 2574.019531 2821.945312 2580.648438 2829.058594 2593.671875 2835.316406 C 2597.949219 2837.234375 2600.5 2838.058594 2600.5 2838.058594 C 2613.261719 2842.339844 2626.96875 2844.5 2641.609375 2844.5 C 2644.089844 2844.5 2646.601562 2844.441406 2649.128906 2844.316406 C 2666.75 2843.453125 2681.878906 2839.78125 2693.378906 2832.9375 C 2704.449219 2826.347656 2708.960938 2818.792969 2705.78125 2810.800781 C 2703.230469 2804.371094 2699.671875 2801.550781 2697.25 2799.65625 C 2694.28125 2797.320312 2690.671875 2795.105469 2686.160156 2793.148438 C 2672.351562 2787.148438 2656.46875 2784.195312 2638.800781 2784.144531 C 2638.640625 2784.144531 2638.488281 2784.144531 2638.339844 2784.144531 C 2635.148438 2784.144531 2632.019531 2784.238281 2628.960938 2784.421875 L 2628.960938 2784.425781 C 2544.699219 2746 2460.449219 2707.589844 2376.191406 2669.171875 L 2376.171875 2669.179688 C 2376.171875 2669.171875 2376.171875 2669.171875 2376.171875 2669.171875 L 2466.050781 2628.191406 L 2466.039062 2628.191406 L 2466.050781 2628.191406 L 2511.269531 2607.570312 L 2511.28125 2607.570312 L 2554.691406 2587.78125 L 2599.910156 2567.160156 L 2599.941406 2567.160156 L 2599.910156 2567.160156 L 2599.929688 2567.160156 L 2712.851562 2515.671875 L 2758.070312 2495.050781 L 2758.089844 2495.050781 L 2758.070312 2495.050781 L 2758.078125 2495.050781 C 2743.011719 2488.179688 2727.929688 2481.300781 2712.859375 2474.429688 L 2712.839844 2474.429688 C 2580.761719 2414.199219 2448.679688 2353.980469 2316.589844 2293.75 Z M 2316.578125 2293.75 "/>
<path fill-rule="nonzero" fill="rgb(99.609375%, 99.609375%, 99.609375%)" fill-opacity="1" d="M 2565.839844 2632.460938 Z M 2565.839844 2632.449219 L 2565.851562 2632.460938 L 2565.839844 2632.460938 Z M 1947.828125 2461.878906 L 1902.601562 2482.5 L 2090.148438 2568.011719 L 2090.148438 2568.019531 C 2090.148438 2568.011719 2090.148438 2568.019531 2090.140625 2568.019531 L 2135.378906 2588.640625 L 2180.609375 2568.019531 L 2257.328125 2533.03125 L 2420.820312 2607.570312 C 2420.808594 2607.570312 2420.808594 2607.570312 2420.808594 2607.570312 L 2466.050781 2628.191406 L 2504.871094 2645.890625 L 2504.851562 2645.890625 C 2502.488281 2649.070312 2501.410156 2652.449219 2501.519531 2655.96875 C 2501.769531 2663.960938 2508.390625 2671.070312 2521.410156 2677.328125 C 2525.699219 2679.25 2528.238281 2680.070312 2528.238281 2680.070312 C 2541 2684.351562 2554.710938 2686.511719 2569.359375 2686.511719 C 2571.839844 2686.511719 2574.339844 2686.449219 2576.878906 2686.320312 C 2594.5 2685.460938 2609.621094 2681.789062 2621.128906 2674.941406 C 2632.199219 2668.359375 2636.699219 2660.800781 2633.53125 2652.808594 C 2630.96875 2646.378906 2627.410156 2643.558594 2625 2641.660156 C 2622.019531 2639.328125 2618.410156 2637.121094 2613.910156 2635.160156 C 2600.101562 2629.160156 2584.210938 2626.210938 2566.539062 2626.160156 C 2566.390625 2626.160156 2566.238281 2626.160156 2566.089844 2626.160156 C 2561.671875 2626.160156 2557.378906 2626.328125 2553.210938 2626.691406 C 2539.230469 2620.320312 2525.261719 2613.941406 2511.289062 2607.570312 L 2511.269531 2607.578125 C 2496.199219 2600.699219 2481.128906 2593.828125 2466.058594 2586.949219 L 2466.039062 2586.949219 C 2411.558594 2562.109375 2357.058594 2537.261719 2302.570312 2512.410156 L 2302.558594 2512.410156 C 2287.480469 2505.539062 2272.410156 2498.660156 2257.339844 2491.789062 L 2257.320312 2491.789062 C 2242.25 2498.660156 2227.171875 2505.539062 2212.089844 2512.410156 C 2186.519531 2524.070312 2160.949219 2535.730469 2135.378906 2547.390625 C 2072.859375 2518.890625 2010.351562 2490.378906 1947.839844 2461.878906 Z M 1947.828125 2461.878906 "/>
<path fill-rule="nonzero" fill="rgb(99.609375%, 99.609375%, 99.609375%)" fill-opacity="1" d="M 2399.308594 2256.03125 L 2354.089844 2276.648438 L 2889.539062 2520.78125 L 2889.519531 2520.78125 C 2887.339844 2523.859375 2886.339844 2527.121094 2886.441406 2530.519531 C 2886.691406 2538.5 2893.308594 2545.609375 2906.339844 2551.871094 C 2910.609375 2553.789062 2913.160156 2554.609375 2913.160156 2554.609375 C 2925.921875 2558.890625 2939.628906 2561.050781 2954.28125 2561.050781 C 2956.75 2561.050781 2959.261719 2560.988281 2961.789062 2560.871094 C 2979.421875 2560.011719 2994.539062 2556.339844 3006.039062 2549.488281 C 3017.121094 2542.898438 3021.621094 2535.339844 3018.449219 2527.359375 C 3015.890625 2520.921875 3012.339844 2518.101562 3009.921875 2516.210938 C 3006.941406 2513.871094 3003.339844 2511.660156 2998.820312 2509.699219 C 2985.019531 2503.699219 2969.128906 2500.75 2951.460938 2500.699219 C 2951.308594 2500.699219 2951.160156 2500.699219 2951 2500.699219 C 2946.289062 2500.699219 2941.710938 2500.898438 2937.269531 2501.308594 C 2757.960938 2419.550781 2578.648438 2337.789062 2399.328125 2256.03125 Z M 2399.308594 2256.03125 "/>
<path fill-rule="nonzero" fill="rgb(99.609375%, 99.609375%, 99.609375%)" fill-opacity="1" d="M 2507.429688 2206.738281 L 2462.199219 2227.359375 L 2701.789062 2336.589844 L 2747.019531 2357.210938 L 2792.230469 2336.601562 L 2810.691406 2328.191406 L 2938.710938 2386.558594 L 2938.691406 2386.558594 C 2937.199219 2389.179688 2936.519531 2391.910156 2936.601562 2394.75 C 2936.851562 2402.730469 2943.46875 2409.839844 2956.5 2416.101562 C 2960.769531 2418.019531 2963.320312 2418.839844 2963.320312 2418.839844 C 2976.078125 2423.121094 2989.789062 2425.28125 3004.441406 2425.28125 C 3006.910156 2425.28125 3009.421875 2425.21875 3011.949219 2425.101562 C 3029.578125 2424.238281 3044.699219 2420.558594 3056.199219 2413.71875 C 3067.28125 2407.128906 3071.78125 2399.570312 3068.609375 2391.578125 C 3066.050781 2385.148438 3062.488281 2382.328125 3060.078125 2380.441406 C 3057.101562 2378.101562 3053.5 2375.890625 3048.980469 2373.929688 C 3035.179688 2367.929688 3019.289062 2364.980469 3001.621094 2364.929688 C 3001.46875 2364.929688 3001.320312 2364.929688 3001.160156 2364.929688 C 2995.179688 2364.929688 2989.410156 2365.25 2983.878906 2365.910156 L 2983.878906 2365.921875 C 2941.238281 2346.46875 2898.589844 2327.019531 2855.929688 2307.570312 L 2855.910156 2307.570312 C 2840.839844 2300.691406 2825.769531 2293.820312 2810.699219 2286.941406 L 2810.679688 2286.949219 C 2795.601562 2293.820312 2780.519531 2300.691406 2765.449219 2307.570312 C 2759.300781 2310.371094 2753.160156 2313.171875 2747.011719 2315.96875 C 2667.160156 2279.558594 2587.300781 2243.148438 2507.441406 2206.738281 Z M 2507.429688 2206.738281 "/>
<path fill-rule="nonzero" fill="rgb(99.609375%, 99.609375%, 99.609375%)" fill-opacity="1" d="M 1097.421875 2746.511719 L 1097.421875 2746.519531 L 1097.410156 2746.511719 C 1097.410156 2746.511719 1097.410156 2746.511719 1097.421875 2746.511719 Z M 1675.03125 2483.160156 C 1482.488281 2570.941406 1289.949219 2658.730469 1097.421875 2746.511719 C 1094.890625 2746.390625 1092.320312 2746.328125 1089.71875 2746.328125 C 1089.570312 2746.328125 1089.410156 2746.328125 1089.261719 2746.328125 C 1071.589844 2746.371094 1055.710938 2749.328125 1041.898438 2755.328125 C 1037.390625 2757.289062 1033.78125 2759.5 1030.808594 2761.839844 C 1028.390625 2763.730469 1024.828125 2766.550781 1022.28125 2772.980469 C 1019.101562 2780.972656 1023.609375 2788.527344 1034.679688 2795.117188 C 1046.179688 2801.960938 1061.308594 2805.636719 1078.929688 2806.496094 C 1081.460938 2806.621094 1083.960938 2806.683594 1086.441406 2806.683594 C 1101.089844 2806.683594 1114.800781 2804.523438 1127.558594 2800.238281 C 1130.148438 2799.5 1134.390625 2797.496094 1134.390625 2797.496094 C 1147.449219 2791.324219 1154.039062 2784.125 1154.28125 2776.144531 C 1154.410156 2771.878906 1152.808594 2767.839844 1149.308594 2764.101562 L 1720.269531 2503.78125 L 1675.039062 2483.160156 Z M 1675.03125 2483.160156 "/>
<path fill-rule="nonzero" fill="rgb(99.609375%, 99.609375%, 99.609375%)" fill-opacity="1" d="M 1384.078125 2350.5 C 1331.589844 2374.429688 1279.109375 2398.359375 1226.628906 2422.289062 C 1211.539062 2429.160156 1196.46875 2436.039062 1181.390625 2442.910156 C 1111.210938 2474.910156 1041.03125 2506.910156 970.847656 2538.910156 C 962.949219 2542.511719 955.046875 2546.109375 947.148438 2549.710938 C 939.972656 2552.980469 932.792969 2556.261719 925.617188 2559.53125 L 953.972656 2572.460938 L 954.164062 2572.539062 L 957.8125 2574.210938 L 963.460938 2576.78125 L 1095.210938 2636.851562 C 996.835938 2681.710938 898.460938 2726.558594 800.085938 2771.410156 C 796.652344 2771.179688 793.132812 2771.058594 789.539062 2771.058594 C 789.386719 2771.058594 789.234375 2771.058594 789.085938 2771.058594 C 771.414062 2771.109375 755.527344 2774.0625 741.71875 2780.0625 C 737.210938 2782.023438 733.601562 2784.230469 730.625 2786.566406 C 728.210938 2788.460938 724.652344 2791.28125 722.097656 2797.714844 C 718.921875 2805.703125 723.429688 2813.261719 734.5 2819.847656 C 746.003906 2826.691406 761.128906 2830.367188 778.75 2831.230469 C 781.285156 2831.351562 783.789062 2831.414062 786.265625 2831.414062 C 800.914062 2831.414062 814.621094 2829.253906 827.382812 2824.96875 C 829.96875 2824.234375 834.210938 2822.230469 834.210938 2822.230469 C 847.269531 2816.058594 853.855469 2808.859375 854.101562 2800.875 C 854.222656 2797.007812 852.910156 2793.324219 850.050781 2789.875 L 850.050781 2789.878906 L 1140.441406 2657.480469 L 1141.238281 2657.109375 L 1156.289062 2650.25 L 1185.671875 2636.859375 C 1170.601562 2629.980469 1155.519531 2623.109375 1140.441406 2616.230469 C 1098.988281 2597.328125 1057.539062 2578.429688 1016.089844 2559.53125 L 1226.628906 2463.53125 L 1226.46875 2463.460938 L 1226.628906 2463.53125 L 1271.859375 2442.910156 L 1429.308594 2371.121094 L 1384.089844 2350.5 Z M 1384.078125 2350.5 "/>
<path fill-rule="nonzero" fill="rgb(99.609375%, 99.609375%, 99.609375%)" fill-opacity="1" d="M 1115.820312 2371.769531 C 1100.738281 2378.640625 1085.660156 2385.511719 1070.578125 2392.390625 C 971.945312 2437.359375 873.3125 2482.328125 774.675781 2527.300781 C 771.980469 2527.160156 769.234375 2527.089844 766.445312 2527.089844 C 766.292969 2527.089844 766.140625 2527.089844 765.988281 2527.089844 C 748.316406 2527.140625 732.429688 2530.089844 718.621094 2536.089844 C 714.113281 2538.050781 710.507812 2540.261719 707.527344 2542.601562 C 705.113281 2544.5 701.558594 2547.320312 699.003906 2553.75 C 695.828125 2561.730469 700.332031 2569.289062 711.40625 2575.878906 C 722.90625 2582.730469 738.03125 2586.398438 755.65625 2587.261719 C 758.1875 2587.378906 760.691406 2587.441406 763.167969 2587.441406 C 777.820312 2587.441406 791.527344 2585.28125 804.289062 2581 C 804.289062 2581 806.832031 2580.179688 811.113281 2578.261719 C 824.136719 2572 830.761719 2564.890625 831.007812 2556.910156 C 831.136719 2552.71875 829.585938 2548.75 826.207031 2545.050781 L 1115.820312 2413.011719 L 1181.390625 2442.910156 L 1181.398438 2442.910156 L 1181.390625 2442.910156 L 1226.628906 2463.53125 L 1347.398438 2518.601562 L 1392.628906 2539.21875 L 1437.671875 2518.679688 L 1437.859375 2518.601562 L 1595.320312 2446.808594 L 1550.089844 2426.179688 L 1550.078125 2426.191406 C 1497.589844 2450.121094 1445.109375 2474.050781 1392.628906 2497.980469 C 1352.371094 2479.621094 1312.109375 2461.269531 1271.859375 2442.910156 C 1256.78125 2436.039062 1241.710938 2429.160156 1226.628906 2422.289062 C 1204.769531 2412.320312 1182.910156 2402.351562 1161.050781 2392.390625 C 1160.429688 2392.109375 1159.820312 2391.828125 1159.199219 2391.550781 C 1159.148438 2391.519531 1159.089844 2391.5 1159.039062 2391.46875 C 1144.628906 2384.898438 1130.21875 2378.328125 1115.820312 2371.769531 Z M 1115.820312 2371.769531 "/>
<path fill-rule="nonzero" fill="rgb(99.609375%, 99.609375%, 99.609375%)" fill-opacity="1" d="M 1015.570312 2258.851562 C 1000.488281 2265.730469 985.414062 2272.601562 970.339844 2279.46875 C 932.605469 2296.679688 894.875 2313.878906 857.140625 2331.078125 L 857.140625 2331.089844 C 854.5 2330.941406 851.808594 2330.878906 849.074219 2330.878906 C 848.921875 2330.878906 848.769531 2330.878906 848.617188 2330.878906 C 830.949219 2330.929688 815.0625 2333.878906 801.253906 2339.878906 C 796.742188 2341.839844 793.136719 2344.050781 790.160156 2346.390625 C 787.746094 2348.28125 784.1875 2351.109375 781.632812 2357.53125 C 778.460938 2365.519531 782.964844 2373.078125 794.035156 2379.671875 C 805.539062 2386.519531 820.664062 2390.191406 838.285156 2391.050781 C 840.816406 2391.171875 843.324219 2391.230469 845.800781 2391.230469 C 860.449219 2391.230469 874.15625 2389.070312 886.917969 2384.789062 C 886.917969 2384.789062 889.464844 2383.96875 893.746094 2382.050781 C 906.765625 2375.789062 913.390625 2368.679688 913.636719 2360.691406 C 913.769531 2356.480469 912.199219 2352.488281 908.785156 2348.78125 L 1015.570312 2300.101562 L 1055.089844 2318.109375 L 1100.320312 2338.730469 L 1145.550781 2318.109375 L 1229.300781 2279.929688 L 1184.070312 2259.300781 C 1156.148438 2272.03125 1128.230469 2284.761719 1100.308594 2297.488281 C 1087.140625 2291.480469 1073.96875 2285.480469 1060.808594 2279.46875 C 1045.71875 2272.601562 1030.648438 2265.71875 1015.570312 2258.851562 Z M 1015.570312 2258.851562 "/>
<path fill-rule="nonzero" fill="rgb(99.609375%, 99.609375%, 99.609375%)" fill-opacity="1" d="M 1247.128906 1667.171875 C 1229.691406 1667.171875 1214.050781 1669.910156 1201.148438 1675.839844 C 1188.160156 1681.808594 1182.320312 1689.011719 1182.570312 1696.988281 C 1182.808594 1704.96875 1189.441406 1712.089844 1202.460938 1718.339844 C 1206.738281 1720.261719 1209.289062 1721.078125 1209.289062 1721.078125 C 1222.050781 1725.371094 1235.75 1727.53125 1250.398438 1727.53125 C 1252.878906 1727.53125 1255.378906 1727.460938 1257.921875 1727.339844 C 1261.101562 1727.191406 1264.199219 1726.941406 1267.210938 1726.601562 L 1433.589844 1802.460938 L 1478.820312 1823.078125 L 1695.609375 1921.921875 C 1710.679688 1915.050781 1725.761719 1908.171875 1740.839844 1901.300781 C 1668.570312 1868.351562 1596.300781 1835.390625 1524.019531 1802.441406 C 1523.988281 1802.429688 1523.96875 1802.421875 1523.941406 1802.410156 C 1508.910156 1795.550781 1493.871094 1788.691406 1478.820312 1781.839844 C 1423.601562 1756.660156 1368.390625 1731.480469 1313.171875 1706.308594 C 1315.761719 1702.328125 1316.289062 1698.140625 1314.570312 1693.828125 C 1312.019531 1687.390625 1308.460938 1684.570312 1306.039062 1682.679688 C 1303.070312 1680.339844 1299.460938 1678.128906 1294.949219 1676.179688 C 1281.140625 1670.179688 1265.261719 1667.21875 1247.589844 1667.171875 C 1247.429688 1667.171875 1247.28125 1667.171875 1247.128906 1667.171875 Z M 1247.128906 1667.171875 "/>
<path fill-rule="nonzero" fill="rgb(0%, 23.143005%, 56.054688%)" fill-opacity="1" d="M 1037.789062 2164.03125 C 1035.070312 2164.03125 1032.871094 2166.238281 1032.871094 2168.960938 L 1032.871094 2245.761719 C 1032.871094 2246.488281 1033.03125 2247.210938 1033.351562 2247.878906 C 1033.839844 2248.929688 1034.691406 2249.761719 1035.75 2250.238281 C 1293.308594 2367.671875 1550.871094 2485.109375 1808.429688 2602.53125 L 1808.421875 2602.53125 C 1808.808594 2602.71875 1809.230469 2602.859375 1809.679688 2602.941406 C 1809.75 2602.949219 1809.808594 2602.960938 1809.871094 2602.96875 L 1809.859375 2602.96875 C 1810.089844 2603 1810.328125 2603.019531 1810.558594 2603.019531 C 1811.011719 2603.019531 1811.449219 2602.960938 1811.878906 2602.839844 L 1811.871094 2602.839844 C 1814 2602.25 1815.5 2600.308594 1815.5 2598.089844 L 1815.5 2520.671875 C 1815.5 2519.210938 1814.851562 2517.828125 1813.730469 2516.890625 C 1812.839844 2516.140625 1811.71875 2515.738281 1810.570312 2515.738281 C 1810.480469 2515.738281 1810.378906 2515.738281 1810.28125 2515.75 L 1039.839844 2164.480469 C 1039.191406 2164.179688 1038.5 2164.03125 1037.789062 2164.03125 Z M 1037.789062 2164.03125 "/>
<path fill-rule="nonzero" fill="rgb(0%, 23.143005%, 56.054688%)" fill-opacity="1" d="M 2616.171875 2149.140625 C 2615.558594 2149.140625 2614.960938 2149.269531 2614.410156 2149.53125 L 1808.539062 2516.960938 C 1807.019531 2517.648438 1806.039062 2519.160156 1806.039062 2520.828125 L 1806.039062 2598.160156 C 1806.039062 2599.609375 1806.78125 2600.960938 1808 2601.75 C 1808.691406 2602.191406 1809.5 2602.421875 1810.300781 2602.421875 C 1810.898438 2602.421875 1811.5 2602.289062 1812.058594 2602.039062 L 2617.640625 2234.75 L 2617.621094 2234.75 C 2618.140625 2234.558594 2618.640625 2234.269531 2619.058594 2233.878906 C 2619.941406 2233.070312 2620.449219 2231.929688 2620.449219 2230.738281 L 2620.449219 2153.398438 C 2620.449219 2151.050781 2618.539062 2149.140625 2616.191406 2149.140625 Z M 2616.171875 2149.140625 "/>
<path fill-rule="nonzero" fill="rgb(18.431091%, 35.693359%, 60.351562%)" fill-opacity="1" d="M 1809.898438 2520.96875 L 1809.878906 2520.980469 Z M 1809.898438 2520.96875 "/>
<path fill-rule="nonzero" fill="rgb(91.40625%, 95.3125%, 99.609375%)" fill-opacity="1" d="M 1843.25 1796.671875 C 1842.730469 1796.671875 1842.21875 1796.78125 1841.75 1797 L 1034.730469 2164.949219 C 1033.429688 2165.53125 1032.609375 2166.828125 1032.609375 2168.25 C 1032.609375 2169.671875 1033.429688 2170.960938 1034.730469 2171.550781 L 1808.371094 2524.28125 C 1808.851562 2524.5 1809.359375 2524.609375 1809.878906 2524.609375 C 1810.390625 2524.609375 1810.898438 2524.5 1811.378906 2524.28125 L 2618.398438 2156.328125 L 2618.410156 2156.328125 C 2619.429688 2155.859375 2620.199219 2154.929688 2620.449219 2153.800781 C 2620.808594 2152.128906 2619.96875 2150.441406 2618.410156 2149.730469 C 2366.53125 2034.890625 2108.640625 1917.308594 1844.769531 1797 C 1844.289062 1796.78125 1843.78125 1796.671875 1843.261719 1796.671875 Z M 1843.25 1796.671875 "/>
<path fill-rule="nonzero" fill="rgb(11.376953%, 47.851562%, 99.609375%)" fill-opacity="1" d="M 1842.71875 1808.320312 C 1842.21875 1808.320312 1841.71875 1808.429688 1841.269531 1808.628906 L 1060.070312 2164.808594 C 1058.820312 2165.378906 1058.019531 2166.628906 1058.019531 2168 C 1058.019531 2169.378906 1058.820312 2170.621094 1060.070312 2171.191406 L 1808.960938 2512.640625 C 1809.421875 2512.851562 1809.921875 2512.960938 1810.410156 2512.960938 C 1810.910156 2512.960938 1811.410156 2512.851562 1811.871094 2512.640625 L 2593.058594 2156.46875 L 2593.070312 2156.46875 C 2594.058594 2156.019531 2594.800781 2155.109375 2595.039062 2154.019531 C 2595.390625 2152.410156 2594.570312 2150.769531 2593.070312 2150.078125 C 2349.25 2038.910156 2099.621094 1925.101562 1844.179688 1808.628906 C 1843.730469 1808.429688 1843.230469 1808.320312 1842.730469 1808.320312 Z M 1842.71875 1808.320312 "/>
<path fill-rule="nonzero" fill="rgb(91.40625%, 95.3125%, 99.609375%)" fill-opacity="1" d="M 1837.121094 1922.710938 C 1835.660156 1922.710938 1834.230469 1923.019531 1832.910156 1923.621094 L 1832.898438 1923.621094 L 1322.808594 2156.191406 L 1322.808594 2156.199219 C 1319.191406 2157.851562 1316.859375 2161.460938 1316.859375 2165.441406 C 1316.859375 2169.429688 1319.191406 2173.039062 1322.808594 2174.691406 L 1811.808594 2397.640625 C 1813.140625 2398.25 1814.578125 2398.558594 1816.019531 2398.558594 C 1817.46875 2398.558594 1818.898438 2398.25 1820.238281 2397.640625 L 2330.328125 2165.070312 L 2329.011719 2165.359375 L 2330.351562 2165.070312 C 2333.199219 2163.769531 2335.359375 2161.179688 2336.050781 2157.980469 L 2336.058594 2157.980469 C 2337.070312 2153.308594 2334.691406 2148.558594 2330.339844 2146.578125 C 2173.578125 2075.109375 2010.578125 2000.789062 1841.339844 1923.621094 C 1840.019531 1923.019531 1838.570312 1922.710938 1837.128906 1922.710938 Z M 1837.121094 1922.710938 "/>
<path fill-rule="nonzero" fill="rgb(0%, 10.984802%, 26.660156%)" fill-opacity="1" d="M 1836.710938 1939.519531 C 1836.390625 1939.519531 1836.089844 1939.589844 1835.800781 1939.71875 L 1345.53125 2163.25 C 1344.75 2163.609375 1344.238281 2164.390625 1344.238281 2165.261719 C 1344.238281 2166.121094 1344.75 2166.898438 1345.53125 2167.261719 L 1815.519531 2381.550781 C 1815.808594 2381.679688 1816.128906 2381.75 1816.441406 2381.75 C 1816.75 2381.75 1817.058594 2381.679688 1817.351562 2381.550781 L 2307.609375 2158.019531 L 2307.621094 2158.019531 C 2308.238281 2157.730469 2308.710938 2157.171875 2308.859375 2156.480469 C 2309.078125 2155.46875 2308.570312 2154.441406 2307.628906 2154.011719 C 2154.601562 2084.238281 1997.941406 2012.808594 1837.628906 1939.71875 C 1837.339844 1939.589844 1837.03125 1939.519531 1836.71875 1939.519531 Z M 1836.710938 1939.519531 "/>
<path fill-rule="nonzero" fill="rgb(99.609375%, 99.609375%, 99.609375%)" fill-opacity="1" d="M 1837.488281 2093.210938 L 1765.160156 2154.839844 L 1704.230469 2126.160156 Z M 1908.230469 2036.640625 C 1907.570312 2036.640625 1906.921875 2036.710938 1906.28125 2036.871094 L 1488.980469 2136.660156 C 1485.519531 2137.480469 1482.960938 2140.390625 1482.589844 2143.921875 C 1482.210938 2147.449219 1484.101562 2150.839844 1487.308594 2152.371094 L 1522.328125 2169.140625 C 1523.46875 2169.691406 1524.710938 2169.96875 1525.949219 2169.96875 C 1526.628906 2169.96875 1527.300781 2169.890625 1527.960938 2169.71875 L 1631.519531 2144.109375 L 1725.421875 2188.550781 L 1676.769531 2230.050781 C 1674.621094 2231.890625 1673.539062 2234.699219 1673.898438 2237.519531 C 1674.269531 2240.328125 1676.039062 2242.761719 1678.589844 2243.988281 L 1714.640625 2261.25 C 1715.789062 2261.800781 1717.03125 2262.070312 1718.261719 2262.070312 C 1720.261719 2262.070312 1722.25 2261.359375 1723.808594 2259.96875 L 1944.171875 2065.191406 C 1946.300781 2063.320312 1947.328125 2060.488281 1946.910156 2057.679688 C 1946.5 2054.871094 1944.691406 2052.46875 1942.109375 2051.289062 L 1911.710938 2037.398438 C 1910.609375 2036.890625 1909.421875 2036.640625 1908.230469 2036.640625 Z M 2077.730469 2114.121094 C 2076.53125 2114.121094 2075.320312 2114.371094 2074.210938 2114.890625 L 1752.589844 2264.230469 C 1749.648438 2265.589844 1747.761719 2268.53125 1747.738281 2271.78125 C 1747.71875 2275.019531 1749.578125 2277.980469 1752.5 2279.390625 L 1788.398438 2296.578125 C 1789.539062 2297.128906 1790.78125 2297.398438 1792.019531 2297.398438 C 1793.230469 2297.398438 1794.429688 2297.140625 1795.558594 2296.621094 L 2117.78125 2146.789062 C 2120.75 2145.410156 2122.640625 2142.429688 2122.628906 2139.160156 C 2122.621094 2135.890625 2120.710938 2132.929688 2117.730469 2131.570312 L 2081.21875 2114.871094 C 2080.109375 2114.371094 2078.921875 2114.121094 2077.730469 2114.121094 Z M 2077.730469 2114.121094 "/>
<path fill-rule="nonzero" fill="rgb(68.164062%, 82.03125%, 99.609375%)" fill-opacity="1" d="M 1495.679688 1219.371094 C 1459.050781 1221.320312 1427.878906 1228.460938 1402.289062 1241.050781 C 1377.679688 1253.148438 1364.050781 1267.441406 1362.691406 1283.808594 C 1362.410156 1287.179688 1363.070312 1290.570312 1363.261719 1293.941406 C 1363.261719 1293.988281 1363.28125 1294.03125 1363.289062 1294.078125 L 1363.28125 1294.078125 C 1371.609375 1451.21875 1379.941406 1608.359375 1388.28125 1765.5 L 1388.28125 1765.511719 C 1388.269531 1765.558594 1388.261719 1765.609375 1388.261719 1765.660156 C 1388.449219 1769.039062 1388.269531 1772.460938 1388.820312 1775.800781 C 1389.460938 1779.660156 1391.460938 1783.460938 1394.480469 1786.839844 C 1401.839844 1795.070312 1407.679688 1799.238281 1410.820312 1800.96875 C 1415.738281 1803.679688 1420.96875 1807.070312 1427.25 1809.78125 C 1450.21875 1819.691406 1480.769531 1824.210938 1518.71875 1823.730469 C 1518.890625 1823.730469 1519.058594 1823.710938 1519.21875 1823.710938 C 1519.878906 1823.679688 1520.519531 1823.640625 1521.148438 1823.609375 C 1521.960938 1823.570312 1522.761719 1823.519531 1523.550781 1823.480469 L 1523.578125 1823.480469 C 1542.878906 1822.371094 1558.601562 1820.511719 1570.671875 1817.609375 C 1587.058594 1813.679688 1599.550781 1809.828125 1608.078125 1806.019531 C 1624.210938 1798.820312 1635.21875 1791.800781 1641.730469 1785.800781 C 1647.46875 1780.511719 1652.378906 1773.28125 1656 1763.609375 L 1656.550781 1757.75 C 1656.46875 1756.089844 1656.390625 1754.429688 1656.300781 1752.769531 C 1656.300781 1752.730469 1656.289062 1752.699219 1656.28125 1752.660156 L 1656.289062 1752.660156 C 1647.859375 1593.738281 1639.429688 1434.808594 1631 1275.890625 L 1630.980469 1275.890625 C 1630.898438 1274.179688 1630.730469 1272.140625 1630.46875 1270.441406 C 1629.761719 1265.898438 1628.351562 1262.820312 1626.898438 1260.308594 C 1626.25 1259.171875 1623.910156 1254.980469 1616.96875 1247.941406 C 1612.039062 1242.941406 1603.25 1237.789062 1590.859375 1232.679688 C 1565.828125 1222.351562 1534.171875 1218.179688 1496.210938 1219.339844 C 1496.039062 1219.351562 1495.859375 1219.359375 1495.679688 1219.371094 Z M 1495.679688 1219.371094 "/>
<path fill-rule="nonzero" fill="rgb(29.80957%, 50.193787%, 77.734375%)" fill-opacity="1" d="M 1651.011719 1653.28125 C 1650.878906 1656.570312 1650.160156 1658.519531 1650.160156 1658.519531 C 1645.230469 1675.511719 1628.960938 1689.789062 1601.289062 1701.25 C 1578.289062 1710.78125 1551.628906 1716.679688 1521.308594 1718.289062 C 1514.929688 1718.628906 1508.378906 1718.78125 1501.671875 1718.730469 C 1464.820312 1718.460938 1434.589844 1712.738281 1412.378906 1700.21875 C 1395.78125 1690.871094 1390.480469 1683.890625 1388.078125 1680.390625 C 1385.859375 1677.140625 1384.171875 1673.769531 1383.238281 1670.261719 L 1383.230469 1670.261719 C 1384.910156 1702.011719 1386.589844 1733.761719 1388.28125 1765.5 L 1388.28125 1765.511719 C 1388.269531 1765.558594 1388.261719 1765.609375 1388.261719 1765.660156 C 1388.449219 1769.039062 1388.269531 1772.460938 1388.820312 1775.800781 C 1389.460938 1779.660156 1391.460938 1783.460938 1394.480469 1786.839844 C 1401.839844 1795.070312 1407.679688 1799.238281 1410.820312 1800.96875 C 1415.738281 1803.679688 1420.96875 1807.070312 1427.25 1809.78125 C 1450.21875 1819.691406 1480.769531 1824.210938 1518.71875 1823.730469 C 1518.789062 1823.730469 1518.851562 1823.730469 1518.921875 1823.730469 C 1519.011719 1823.71875 1519.109375 1823.710938 1519.199219 1823.710938 L 1519.21875 1823.710938 C 1519.878906 1823.679688 1520.519531 1823.640625 1521.148438 1823.609375 C 1521.960938 1823.570312 1522.761719 1823.519531 1523.550781 1823.480469 L 1523.578125 1823.480469 C 1542.878906 1822.371094 1558.601562 1820.511719 1570.671875 1817.609375 C 1587.058594 1813.679688 1599.550781 1809.828125 1608.078125 1806.019531 C 1624.210938 1798.820312 1635.21875 1791.800781 1641.730469 1785.800781 C 1647.46875 1780.511719 1652.378906 1773.28125 1656 1763.609375 L 1656.550781 1757.75 C 1656.46875 1756.089844 1656.390625 1754.429688 1656.300781 1752.769531 C 1656.300781 1752.730469 1656.289062 1752.699219 1656.28125 1752.660156 L 1656.289062 1752.671875 C 1654.539062 1719.539062 1652.78125 1686.410156 1651.019531 1653.28125 Z M 1651.011719 1653.28125 "/>
<path fill-rule="nonzero" fill="rgb(77.34375%, 87.109375%, 99.609375%)" fill-opacity="1" d="M 1492.371094 1196.558594 C 1458.039062 1198.378906 1429.78125 1205.671875 1407.539062 1217.238281 C 1393.019531 1224.789062 1383.128906 1233.210938 1378.058594 1242.5 C 1377.058594 1245.070312 1376.039062 1247.640625 1375.011719 1250.199219 C 1375.011719 1250.230469 1375 1250.25 1375 1250.28125 L 1374.980469 1250.28125 C 1371.921875 1257.960938 1368.851562 1265.640625 1365.789062 1273.320312 C 1365.691406 1273.539062 1365.589844 1273.769531 1365.5 1273.988281 C 1365.25 1274.640625 1365 1275.289062 1364.738281 1275.941406 C 1363.429688 1279.71875 1362.789062 1283.621094 1362.839844 1287.640625 C 1362.910156 1293.269531 1365.058594 1298.578125 1368.488281 1303.578125 C 1370.878906 1307.078125 1376.171875 1314.050781 1392.738281 1323.390625 C 1414.921875 1335.878906 1445.101562 1341.601562 1481.878906 1341.859375 C 1488.53125 1341.910156 1495.011719 1341.761719 1501.328125 1341.429688 L 1501.628906 1341.421875 C 1531.839844 1339.800781 1558.410156 1333.910156 1581.320312 1324.410156 C 1608.941406 1312.96875 1625.191406 1298.710938 1630.109375 1281.75 C 1630.109375 1281.75 1631.289062 1278.539062 1630.890625 1273.421875 C 1630.640625 1271.109375 1630.179688 1268.859375 1629.488281 1266.679688 L 1623.640625 1255.449219 C 1623.628906 1255.429688 1623.609375 1255.398438 1623.589844 1255.378906 L 1623.609375 1255.378906 L 1622.960938 1254.148438 L 1615.378906 1239.640625 L 1615.371094 1239.640625 L 1609.570312 1228.5 C 1609.558594 1228.488281 1609.539062 1228.46875 1609.519531 1228.449219 C 1603.351562 1220.488281 1593.140625 1213.71875 1578.921875 1208.140625 C 1555.570312 1198.988281 1526.699219 1194.738281 1492.371094 1196.558594 Z M 1492.371094 1196.558594 "/>
<path fill-rule="nonzero" fill="rgb(91.40625%, 95.3125%, 99.609375%)" fill-opacity="1" d="M 1616.480469 1245.210938 C 1616.660156 1248.421875 1615.769531 1252.75 1615.769531 1252.75 C 1611.320312 1268.078125 1596.628906 1280.96875 1571.660156 1291.320312 C 1546.539062 1301.730469 1516.550781 1307.351562 1481.75 1307.101562 C 1448.480469 1306.859375 1421.199219 1301.691406 1401.140625 1290.390625 C 1386.160156 1281.949219 1381.609375 1275.980469 1379.210938 1272.488281 C 1376.109375 1267.960938 1374.179688 1263.160156 1374.109375 1258.070312 C 1373.910156 1242.421875 1385.289062 1228.808594 1407.539062 1217.238281 C 1429.78125 1205.671875 1458.039062 1198.378906 1492.371094 1196.558594 C 1526.699219 1194.738281 1555.570312 1198.988281 1578.921875 1208.140625 C 1602.261719 1217.300781 1614.789062 1229.648438 1616.480469 1245.210938 Z M 1616.480469 1245.210938 "/>
<path fill-rule="nonzero" fill="rgb(62.304688%, 78.514099%, 99.609375%)" fill-opacity="1" d="M 1832.230469 1138.199219 C 1721.140625 1138.199219 1628.730469 1162.480469 1554.980469 1206.078125 C 1484.441406 1247.769531 1445.648438 1299.511719 1440.609375 1361.390625 C 1434.789062 1396.210938 1472.800781 1792.398438 1472.800781 1792.398438 C 1472.789062 1792.429688 1472.789062 1792.460938 1472.789062 1792.488281 L 1475.210938 1824.710938 C 1477.429688 1834.679688 1480.519531 1844.628906 1485.410156 1853.960938 C 1491.839844 1866.25 1503.890625 1891.308594 1547.5 1927.339844 C 1604.488281 1974.441406 1684.949219 2000.359375 1783.410156 2008.078125 C 1801.179688 2009.46875 1818.550781 2010.160156 1835.519531 2010.171875 L 1836.21875 2010.171875 C 1917.300781 2010.121094 1989.300781 1994.539062 2051.980469 1965.730469 C 2127.539062 1931 2173.019531 1884.410156 2188.570312 1826.289062 C 2188.800781 1825.441406 2189.140625 1823.839844 2189.140625 1823.839844 L 2191.519531 1791.988281 C 2191.519531 1791.960938 2191.511719 1791.929688 2191.511719 1791.898438 C 2230.53125 1385.371094 2223.640625 1360.210938 2223.640625 1360.210938 C 2217.628906 1298.871094 2179.570312 1247.5 2109.5 1206.078125 C 2035.730469 1162.480469 1943.328125 1138.199219 1832.230469 1138.199219 Z M 1832.230469 1138.199219 "/>
<path fill-rule="nonzero" fill="rgb(83.59375%, 90.625%, 99.609375%)" fill-opacity="1" d="M 1832.230469 1138.199219 C 1721.128906 1138.199219 1628.730469 1162.488281 1554.980469 1206.078125 C 1488.5 1245.371094 1450.210938 1293.601562 1441.820312 1350.820312 C 1441.789062 1352.109375 1441.75 1353.359375 1441.691406 1354.589844 C 1441.039062 1369.78125 1446.039062 1384.671875 1455.671875 1398.371094 C 1462.480469 1408.058594 1476.589844 1427.789062 1523.21875 1455.230469 C 1586.011719 1492.191406 1672.820312 1511.820312 1779.859375 1517.789062 C 1799.339844 1518.878906 1818.378906 1519.410156 1836.988281 1519.410156 C 1925.339844 1519.410156 2003.738281 1507.339844 2072.03125 1484.980469 C 2154.199219 1458.070312 2203.699219 1421.960938 2220.628906 1376.929688 C 2220.628906 1376.929688 2222.960938 1372.921875 2223.859375 1362.269531 C 2223.761719 1360.628906 2223.640625 1360.210938 2223.640625 1360.210938 C 2217.628906 1298.871094 2179.570312 1247.5 2109.5 1206.078125 C 2035.730469 1162.480469 1943.328125 1138.199219 1832.230469 1138.199219 Z M 1832.230469 1138.199219 "/>
<path fill-rule="nonzero" fill="rgb(29.80957%, 49.804688%, 77.734375%)" fill-opacity="1" d="M 1465.191406 1710.769531 C 1469.589844 1759.011719 1472.800781 1792.398438 1472.800781 1792.398438 C 1472.789062 1792.429688 1472.789062 1792.460938 1472.789062 1792.488281 L 1475.210938 1824.710938 C 1477.429688 1834.679688 1480.519531 1844.628906 1485.410156 1853.960938 C 1491.839844 1866.25 1503.890625 1891.308594 1547.5 1927.339844 C 1604.488281 1974.441406 1684.949219 2000.359375 1783.410156 2008.078125 C 1801.179688 2009.46875 1818.550781 2010.160156 1835.519531 2010.171875 L 1836.21875 2010.171875 C 1917.300781 2010.121094 1989.300781 1994.539062 2051.980469 1965.730469 C 2127.539062 1931 2173.019531 1884.410156 2188.570312 1826.289062 C 2188.800781 1825.441406 2189.140625 1823.839844 2189.140625 1823.839844 L 2191.519531 1791.988281 C 2191.519531 1791.960938 2191.511719 1791.929688 2191.511719 1791.898438 C 2191.96875 1787.191406 2192.410156 1782.53125 2192.851562 1777.929688 L 2192.839844 1777.929688 L 2190.910156 1789.640625 C 2184.730469 1803.03125 2179.890625 1811.910156 2176.410156 1816.28125 C 2175.058594 1820.53125 2160.46875 1833.179688 2132.640625 1854.230469 C 2114.300781 1865.371094 2087.710938 1877 2052.878906 1889.128906 C 2045.960938 1892.570312 2021.300781 1898.910156 1978.878906 1908.140625 C 1947.761719 1913.910156 1914.550781 1917.570312 1879.269531 1919.109375 L 1879.261719 1919.121094 C 1875.320312 1919.191406 1871.378906 1919.21875 1867.441406 1919.21875 C 1840.898438 1919.21875 1814.160156 1917.558594 1787.21875 1914.210938 C 1777.269531 1913.960938 1749.589844 1908.769531 1704.191406 1898.640625 C 1686.378906 1894.078125 1669.308594 1888.859375 1652.96875 1882.980469 C 1590.679688 1863.070312 1539.679688 1826.480469 1499.96875 1773.179688 C 1488.28125 1756.691406 1476.691406 1735.878906 1465.191406 1710.769531 Z M 1465.191406 1710.769531 "/>
<path fill-rule="nonzero" fill="rgb(68.164062%, 82.03125%, 99.609375%)" fill-opacity="1" d="M 2180.789062 1455.980469 C 2144.109375 1455.980469 2112.609375 1461.460938 2086.390625 1472.671875 C 2061.171875 1483.449219 2046.800781 1497 2044.578125 1513.28125 C 2044.121094 1516.628906 2044.589844 1520.039062 2044.609375 1523.429688 C 2044.609375 1523.46875 2044.621094 1523.519531 2044.628906 1523.558594 L 2044.621094 1523.558594 C 2044.609375 1680.921875 2044.609375 1838.28125 2044.609375 1995.648438 C 2044.589844 1995.699219 2044.578125 1995.761719 2044.578125 1995.808594 C 2044.589844 1999.191406 2044.230469 2002.601562 2044.609375 2005.960938 C 2045.039062 2009.839844 2046.828125 2013.75 2049.660156 2017.28125 C 2056.578125 2025.890625 2062.191406 2030.371094 2065.230469 2032.261719 C 2070 2035.230469 2075.039062 2038.878906 2081.171875 2041.921875 C 2103.589844 2053.050781 2133.859375 2059.179688 2171.769531 2060.710938 C 2171.941406 2060.710938 2172.109375 2060.710938 2172.28125 2060.710938 C 2172.929688 2060.710938 2173.578125 2060.710938 2174.210938 2060.710938 C 2175.019531 2060.710938 2175.820312 2060.710938 2176.609375 2060.710938 L 2176.640625 2060.710938 C 2195.980469 2060.621094 2211.769531 2059.601562 2223.980469 2057.351562 C 2240.550781 2054.28125 2253.230469 2051.109375 2261.949219 2047.761719 C 2278.441406 2041.421875 2289.808594 2035 2296.628906 2029.351562 C 2302.640625 2024.371094 2307.921875 2017.410156 2312.039062 2007.941406 L 2312.910156 2002.121094 C 2312.921875 2000.460938 2312.929688 1998.800781 2312.921875 1997.140625 C 2312.921875 1997.101562 2312.910156 1997.058594 2312.910156 1997.03125 L 2312.921875 1997.03125 C 2312.921875 1837.878906 2312.921875 1678.730469 2312.921875 1519.589844 L 2312.910156 1519.589844 C 2312.921875 1517.871094 2312.859375 1515.820312 2312.679688 1514.109375 C 2312.21875 1509.539062 2310.96875 1506.390625 2309.660156 1503.808594 C 2309.058594 1502.640625 2306.949219 1498.328125 2300.398438 1490.929688 C 2295.738281 1485.679688 2287.230469 1480.070312 2275.128906 1474.308594 C 2250.679688 1462.671875 2219.289062 1456.820312 2181.320312 1455.980469 C 2181.148438 1455.96875 2180.96875 1455.980469 2180.789062 1455.980469 Z M 2180.789062 1455.980469 "/>
<path fill-rule="nonzero" fill="rgb(29.80957%, 50.193787%, 77.734375%)" fill-opacity="1" d="M 2312.910156 1897.511719 C 2312.609375 1900.78125 2311.789062 1902.691406 2311.789062 1902.691406 C 2305.96875 1919.390625 2288.960938 1932.789062 2260.71875 1942.769531 C 2237.25 1951.070312 2210.308594 1955.550781 2179.949219 1955.550781 C 2173.558594 1955.550781 2167.011719 1955.351562 2160.320312 1954.949219 C 2123.53125 1952.730469 2093.648438 1945.410156 2072.128906 1931.738281 C 2056.039062 1921.519531 2051.128906 1914.261719 2048.910156 1910.640625 C 2046.859375 1907.28125 2045.359375 1903.820312 2044.621094 1900.269531 L 2044.609375 1900.269531 C 2044.609375 1932.058594 2044.609375 1963.859375 2044.609375 1995.648438 C 2044.589844 1995.699219 2044.578125 1995.761719 2044.578125 1995.808594 C 2044.589844 1999.191406 2044.230469 2002.601562 2044.609375 2005.960938 C 2045.039062 2009.839844 2046.828125 2013.75 2049.660156 2017.28125 C 2056.578125 2025.890625 2062.191406 2030.371094 2065.230469 2032.261719 C 2070 2035.230469 2075.039062 2038.878906 2081.171875 2041.921875 C 2103.589844 2053.050781 2133.859375 2059.179688 2171.769531 2060.710938 C 2171.839844 2060.710938 2171.910156 2060.710938 2171.980469 2060.710938 C 2172.070312 2060.710938 2172.160156 2060.710938 2172.25 2060.710938 L 2172.28125 2060.710938 C 2172.929688 2060.710938 2173.578125 2060.710938 2174.210938 2060.710938 C 2175.019531 2060.710938 2175.820312 2060.710938 2176.609375 2060.710938 L 2176.640625 2060.710938 C 2195.980469 2060.621094 2211.769531 2059.601562 2223.980469 2057.351562 C 2240.550781 2054.28125 2253.230469 2051.109375 2261.949219 2047.761719 C 2278.441406 2041.421875 2289.808594 2035 2296.628906 2029.351562 C 2302.640625 2024.371094 2307.921875 2017.410156 2312.039062 2007.941406 L 2312.910156 2002.121094 C 2312.921875 2000.460938 2312.929688 1998.800781 2312.921875 1997.140625 C 2312.921875 1997.101562 2312.910156 1997.070312 2312.910156 1997.03125 L 2312.921875 1997.03125 C 2312.921875 1963.859375 2312.921875 1930.679688 2312.921875 1897.511719 Z M 2312.910156 1897.511719 "/>
<path fill-rule="nonzero" fill="rgb(77.34375%, 87.109375%, 99.609375%)" fill-opacity="1" d="M 2178.699219 1433.019531 C 2144.308594 1433.019531 2115.710938 1438.800781 2092.878906 1449.179688 C 2077.980469 1455.941406 2067.660156 1463.828125 2062.109375 1472.839844 C 2060.96875 1475.351562 2059.820312 1477.859375 2058.660156 1480.371094 C 2058.648438 1480.390625 2058.640625 1480.421875 2058.640625 1480.441406 L 2058.628906 1480.441406 C 2055.160156 1487.949219 2051.691406 1495.460938 2048.21875 1502.960938 L 2048.21875 1502.96875 C 2048.109375 1503.179688 2048 1503.398438 2047.898438 1503.621094 C 2047.621094 1504.25 2047.328125 1504.890625 2047.039062 1505.53125 C 2045.53125 1509.230469 2044.679688 1513.089844 2044.519531 1517.109375 C 2044.289062 1522.738281 2046.160156 1528.148438 2049.320312 1533.328125 C 2051.519531 1536.941406 2056.429688 1544.191406 2072.488281 1554.390625 C 2093.96875 1568.039062 2123.808594 1575.351562 2160.519531 1577.558594 C 2167.148438 1577.960938 2173.628906 1578.160156 2179.96875 1578.160156 L 2180.269531 1578.160156 C 2210.519531 1578.148438 2237.359375 1573.679688 2260.75 1565.410156 C 2288.941406 1555.441406 2305.921875 1542.070312 2311.730469 1525.390625 C 2311.730469 1525.390625 2313.078125 1522.25 2312.949219 1517.109375 C 2312.820312 1514.789062 2312.46875 1512.519531 2311.910156 1510.308594 L 2306.660156 1498.78125 C 2306.640625 1498.761719 2306.628906 1498.730469 2306.609375 1498.710938 L 2306.628906 1498.710938 L 2306.050781 1497.449219 L 2299.25 1482.550781 L 2299.230469 1482.558594 L 2294.039062 1471.128906 C 2294.019531 1471.109375 2294.011719 1471.089844 2294 1471.070312 C 2288.25 1462.800781 2278.421875 1455.5 2264.5 1449.179688 C 2241.679688 1438.800781 2213.070312 1433.019531 2178.699219 1433.019531 Z M 2178.699219 1433.019531 "/>
<path fill-rule="nonzero" fill="rgb(91.40625%, 95.3125%, 99.609375%)" fill-opacity="1" d="M 2300.050781 1488.179688 C 2300.058594 1491.390625 2298.941406 1495.660156 2298.941406 1495.660156 C 2293.691406 1510.75 2278.339844 1522.839844 2252.851562 1531.851562 C 2227.210938 1540.910156 2196.96875 1544.929688 2162.230469 1542.839844 C 2129.019531 1540.839844 2102.050781 1534.230469 2082.628906 1521.890625 C 2068.109375 1512.660156 2063.878906 1506.460938 2061.679688 1502.839844 C 2058.820312 1498.160156 2057.128906 1493.269531 2057.339844 1488.179688 C 2057.96875 1472.539062 2070.058594 1459.550781 2092.878906 1449.179688 C 2115.710938 1438.800781 2144.308594 1433.019531 2178.699219 1433.019531 C 2213.070312 1433.019531 2241.679688 1438.800781 2264.5 1449.179688 C 2287.328125 1459.550781 2299.179688 1472.558594 2300.050781 1488.179688 Z M 2300.050781 1488.179688 "/>
<path fill-rule="nonzero" fill="rgb(77.34375%, 87.109375%, 99.609375%)" fill-opacity="1" d="M 1832.480469 820.820312 C 1730.640625 821.988281 1645.898438 837.941406 1578.269531 868.679688 C 1578.019531 868.800781 1577.761719 868.910156 1577.511719 869.03125 C 1566.941406 874.28125 1557.070312 879.359375 1547.910156 884.261719 C 1547.808594 884.320312 1547.699219 884.378906 1547.589844 884.441406 L 1547.589844 884.449219 C 1516.929688 900.851562 1494.269531 915.269531 1479.53125 927.621094 C 1462.929688 941.539062 1449.128906 955.660156 1437.640625 970.191406 C 1434.609375 974.03125 1426.179688 985.050781 1417.539062 1006.308594 C 1403.480469 1040.878906 1398.628906 1080.730469 1398.988281 1124.480469 C 1399.050781 1132.089844 1398.910156 1139.738281 1398.960938 1147.421875 C 1398.910156 1155.101562 1399.050781 1162.75 1398.988281 1170.359375 C 1398.628906 1214.109375 1403.480469 1253.960938 1417.539062 1288.53125 C 1426.179688 1309.789062 1434.609375 1320.808594 1437.640625 1324.648438 C 1449.128906 1339.171875 1462.929688 1353.289062 1479.53125 1367.21875 C 1493.71875 1379.109375 1515.25 1392.921875 1544.179688 1408.570312 C 1544.210938 1408.589844 1544.230469 1408.609375 1544.261719 1408.621094 C 1557.171875 1415.601562 1571.539062 1422.941406 1587.378906 1430.660156 C 1603.199219 1437.390625 1620.109375 1443.378906 1638.109375 1448.609375 C 1655.089844 1453.539062 1673.050781 1457.800781 1691.96875 1461.390625 C 1700.21875 1464.03125 1730.800781 1467.890625 1783.699219 1473 C 1800.070312 1473.808594 1816.101562 1474.210938 1831.789062 1474.210938 C 1838.039062 1474.210938 1844.21875 1474.140625 1850.359375 1474.019531 C 1851.738281 1474.109375 1853.378906 1474.148438 1855.300781 1474.148438 C 1869.558594 1474.148438 1898.730469 1471.671875 1942.851562 1466.699219 C 1981.960938 1461.089844 2018.398438 1452.339844 2052.179688 1440.441406 C 2063.269531 1436.511719 2073.710938 1432.378906 2083.5 1428.058594 C 2096.390625 1421.730469 2108.238281 1415.648438 2119.089844 1409.820312 C 2119.101562 1409.820312 2119.109375 1409.808594 2119.128906 1409.800781 C 2119.148438 1409.789062 2119.179688 1409.769531 2119.199219 1409.75 L 2119.21875 1409.761719 C 2149.25 1393.609375 2171.511719 1379.410156 2186.058594 1367.21875 C 2202.660156 1353.289062 2216.449219 1339.179688 2227.941406 1324.648438 C 2230.980469 1320.808594 2239.410156 1309.789062 2248.050781 1288.53125 C 2262.109375 1253.960938 2266.960938 1214.109375 2266.601562 1170.359375 C 2266.539062 1162.75 2266.671875 1155.101562 2266.628906 1147.421875 C 2266.671875 1139.738281 2266.539062 1132.089844 2266.601562 1124.480469 C 2266.960938 1080.730469 2262.109375 1040.878906 2248.050781 1006.308594 C 2239.410156 985.050781 2230.980469 974.03125 2227.941406 970.191406 C 2216.449219 955.660156 2202.660156 941.539062 2186.058594 927.621094 C 2169.46875 913.710938 2142.820312 897.191406 2106.058594 878.148438 L 2106.050781 878.148438 C 2109.839844 880.160156 2113.519531 882.191406 2117.058594 884.261719 L 2117.050781 884.261719 C 2107.789062 878.859375 2097.679688 873.671875 2086.699219 868.679688 C 2019.070312 837.941406 1934.339844 821.988281 1832.480469 820.820312 Z M 1832.480469 820.820312 "/>
<path fill-rule="nonzero" fill="rgb(62.304688%, 78.514099%, 99.609375%)" fill-opacity="1" d="M 2266.011719 1198.890625 C 2264.839844 1211.011719 2262.839844 1220.691406 2262.839844 1220.691406 C 2244.058594 1290.808594 2189.179688 1347.03125 2098.011719 1388.941406 C 2022.269531 1423.75 1935.238281 1442.570312 1837.238281 1442.570312 C 1816.621094 1442.570312 1795.519531 1441.730469 1773.929688 1440.039062 C 1655.128906 1430.730469 1558.039062 1399.449219 1489.261719 1342.621094 C 1436.640625 1299.140625 1420.550781 1267.308594 1414.339844 1254.070312 C 1407.46875 1239.429688 1402.5 1224.371094 1400.199219 1208.871094 L 1400.191406 1208.871094 C 1402.398438 1237.691406 1407.71875 1264.390625 1417.539062 1288.53125 C 1426.179688 1309.789062 1434.609375 1320.808594 1437.640625 1324.648438 C 1449.128906 1339.171875 1462.929688 1353.289062 1479.53125 1367.21875 C 1493.71875 1379.109375 1515.25 1392.921875 1544.179688 1408.570312 C 1544.210938 1408.589844 1544.230469 1408.609375 1544.261719 1408.621094 C 1557.171875 1415.601562 1571.539062 1422.941406 1587.378906 1430.660156 C 1603.199219 1437.390625 1620.109375 1443.378906 1638.109375 1448.609375 C 1655.089844 1453.539062 1673.050781 1457.800781 1691.96875 1461.390625 C 1700.21875 1464.03125 1730.800781 1467.890625 1783.699219 1473 C 1800.070312 1473.808594 1816.101562 1474.210938 1831.789062 1474.210938 C 1838.039062 1474.210938 1844.21875 1474.140625 1850.359375 1474.019531 C 1851.738281 1474.109375 1853.378906 1474.148438 1855.300781 1474.148438 C 1869.558594 1474.148438 1898.730469 1471.671875 1942.851562 1466.699219 C 1981.960938 1461.089844 2018.398438 1452.339844 2052.179688 1440.441406 C 2063.269531 1436.511719 2073.710938 1432.378906 2083.5 1428.058594 C 2096.390625 1421.730469 2108.238281 1415.648438 2119.089844 1409.820312 C 2119.101562 1409.820312 2119.109375 1409.808594 2119.128906 1409.800781 C 2119.148438 1409.789062 2119.179688 1409.769531 2119.199219 1409.75 L 2119.21875 1409.761719 C 2149.25 1393.609375 2171.511719 1379.410156 2186.058594 1367.21875 C 2202.660156 1353.289062 2216.449219 1339.179688 2227.941406 1324.648438 C 2230.980469 1320.808594 2239.410156 1309.789062 2248.050781 1288.53125 C 2258.988281 1261.628906 2264.351562 1231.53125 2266.019531 1198.890625 Z M 2266.011719 1198.890625 "/>
<path fill-rule="nonzero" fill="rgb(17.651367%, 33.325195%, 56.834412%)" fill-opacity="1" d="M 1440.089844 1073.890625 C 1437 1073.890625 1434.261719 1074.78125 1431.878906 1076.570312 C 1420.609375 1085.601562 1412.460938 1101.910156 1407.429688 1125.511719 C 1402.738281 1150.429688 1401.738281 1174.910156 1404.421875 1198.941406 C 1404.878906 1201.769531 1405.488281 1204.558594 1406.238281 1207.300781 C 1407.371094 1210.921875 1408.609375 1214.519531 1409.980469 1218.078125 C 1410.070312 1218.308594 1410.171875 1218.539062 1410.261719 1218.769531 L 1410.261719 1218.78125 C 1411.800781 1222.75 1413.5 1226.710938 1415.339844 1230.621094 C 1416.449219 1232.980469 1417.871094 1235.941406 1419.769531 1239.449219 C 1419.800781 1239.519531 1419.839844 1239.589844 1419.871094 1239.671875 C 1428.570312 1255.699219 1447 1283.179688 1489.558594 1318.339844 C 1557.679688 1374.628906 1653.859375 1405.621094 1771.53125 1414.839844 C 1792.910156 1416.511719 1813.820312 1417.339844 1834.238281 1417.339844 C 1866.148438 1417.339844 1896.878906 1415.320312 1926.429688 1411.390625 L 1927.121094 1411.160156 C 1942.441406 1409.25 1956.78125 1406.371094 1970.128906 1402.519531 C 1980.589844 1398.640625 1986.53125 1395.988281 1987.949219 1394.558594 C 2002.128906 1385.769531 2010.140625 1371.070312 2011.980469 1350.441406 C 2012.539062 1283.800781 2006.398438 1240.460938 1993.570312 1220.410156 C 1987.898438 1206.589844 1971.941406 1199.679688 1945.691406 1199.679688 C 1938.96875 1199.679688 1931.570312 1200.128906 1923.5 1201.039062 C 1894.859375 1204.710938 1865.101562 1206.601562 1834.238281 1206.601562 C 1813.820312 1206.601562 1792.910156 1205.769531 1771.53125 1204.101562 C 1653.859375 1194.878906 1557.679688 1163.890625 1489.558594 1107.601562 C 1482.289062 1101.601562 1475.730469 1095.820312 1469.800781 1090.289062 L 1469.730469 1090.269531 C 1457.640625 1079.351562 1447.761719 1073.890625 1440.089844 1073.890625 Z M 1440.089844 1073.890625 "/>
<path fill-rule="nonzero" fill="rgb(62.304688%, 78.514099%, 99.609375%)" fill-opacity="1" d="M 1811.121094 1308.558594 L 1810.601562 1318.730469 C 1808.140625 1339.230469 1800.96875 1355.648438 1789.019531 1367.910156 C 1777.039062 1380.21875 1762.789062 1385.691406 1746.609375 1382.859375 C 1730.980469 1380.121094 1718.058594 1370.460938 1709.339844 1354.371094 C 1702.171875 1341.140625 1700.5 1333.808594 1699.539062 1328.488281 C 1698.371094 1322.089844 1697.410156 1315.46875 1697.5 1308.558594 C 1697.800781 1287.308594 1703.460938 1269.640625 1714.140625 1255.53125 C 1724.828125 1241.421875 1738.210938 1233.570312 1754.308594 1233.570312 C 1770.410156 1233.570312 1783.789062 1241.421875 1794.480469 1255.53125 C 1805.171875 1269.640625 1810.710938 1287.308594 1811.121094 1308.558594 Z M 1811.121094 1308.558594 "/>
<path fill-rule="nonzero" fill="rgb(62.304688%, 78.514099%, 99.609375%)" fill-opacity="1" d="M 1545.058594 1221.308594 L 1543.941406 1229.519531 C 1540.558594 1246.039062 1533.71875 1258.941406 1523.410156 1268.058594 C 1513.070312 1277.199219 1501.5 1280.488281 1489.148438 1276.75 C 1477.320312 1273.171875 1468.25 1264.210938 1463.011719 1250.480469 C 1458.730469 1239.289062 1458.121094 1233.308594 1457.859375 1229 C 1457.539062 1223.828125 1457.390625 1218.53125 1458.070312 1213.070312 C 1460.128906 1196.410156 1465.851562 1183.019531 1474.988281 1172.769531 C 1484.121094 1162.53125 1494.761719 1157.269531 1506.871094 1158.230469 C 1519.058594 1159.191406 1528.679688 1166.121094 1535.878906 1177.859375 C 1543.140625 1189.710938 1546.230469 1204.191406 1545.058594 1221.308594 Z M 1545.058594 1221.308594 "/>
</svg>
